<svg width="33" height="33" viewBox="0 0 33 33" fill="none" xmlns="http://www.w3.org/2000/svg">
<g filter="url(#filter0_b_1_3)">
<path d="M14.6525 17.3858C14.6525 18.7094 13.7042 19.7865 12.5119 19.7865C11.3383 19.7865 10.3713 18.7094 10.3713 17.3858C10.3713 16.0629 11.3196 14.9852 12.5119 14.9852C13.7132 14.9852 14.6711 16.0725 14.6525 17.3858ZM22.5664 17.3858C22.5664 18.7094 21.6278 19.7865 20.4258 19.7865C19.2522 19.7865 18.2853 18.7094 18.2853 17.3858C18.2853 16.0629 19.2336 14.9852 20.4258 14.9852C21.6278 14.9852 22.5851 16.0725 22.5664 17.3858Z" fill="url(#paint0_linear_1_3)"/>
<path d="M29.4341 0H3.56588C1.59657 0 0 1.59657 0 3.56588V29.4341C0 31.4034 1.59657 33 3.56588 33H29.4341C31.4034 33 33 31.4034 33 29.4341V3.56588C33 1.59657 31.4034 0 29.4341 0ZM28.2676 22.4936C28.2663 22.5155 28.2547 22.5348 28.2367 22.5483C26.1998 24.0444 24.226 24.9528 22.2798 25.5547C22.2489 25.5644 22.2155 25.5528 22.1968 25.5264C21.7468 24.9006 21.3386 24.2408 20.9807 23.5481C20.9601 23.5075 20.9788 23.4586 21.0212 23.4425C21.6645 23.2004 22.2862 22.9045 22.8798 22.5579C22.9268 22.5303 22.93 22.4633 22.8863 22.4311C22.7607 22.3378 22.6358 22.2393 22.5167 22.1408C22.4942 22.1227 22.4639 22.1189 22.4388 22.1318C18.5865 23.9112 14.3665 23.9112 10.4691 22.1318C10.4433 22.1202 10.4131 22.124 10.3918 22.1421C10.2727 22.2399 10.1479 22.3378 10.023 22.4311C9.97983 22.4633 9.98369 22.5303 10.03 22.5579C10.6236 22.8979 11.2403 23.1979 11.888 23.4431C11.9305 23.4592 11.9504 23.5075 11.9298 23.5481C11.5796 24.2421 11.1708 24.9019 10.7131 25.527C10.6931 25.5528 10.6603 25.5644 10.6294 25.5547C8.69228 24.9528 6.7191 24.0444 4.68219 22.5483C4.66481 22.5348 4.65258 22.5142 4.65064 22.4923C4.23605 18.0483 5.08197 13.5489 8.16953 8.93562C8.17725 8.92339 8.1882 8.91373 8.20172 8.90858C9.74545 8.19894 11.375 7.6934 13.0494 7.40472C13.0809 7.40022 13.1118 7.41438 13.1273 7.44142C13.3378 7.81416 13.5779 8.2912 13.7408 8.68133C15.5337 8.40773 17.3549 8.40773 19.1858 8.68133C19.3481 8.29957 19.5798 7.81416 19.7897 7.44142C19.8052 7.41309 19.8361 7.39893 19.8676 7.40472C21.5417 7.69441 23.1711 8.19991 24.7152 8.90858C24.7288 8.91373 24.7397 8.92339 24.7461 8.93691C27.4358 12.8929 28.7646 17.3556 28.2676 22.4936Z" fill="url(#paint1_linear_1_3)"/>
</g>
<defs>
<filter id="filter0_b_1_3" x="-4" y="-4" width="41" height="41" filterUnits="userSpaceOnUse" color-interpolation-filters="sRGB">
<feFlood flood-opacity="0" result="BackgroundImageFix"/>
<feGaussianBlur in="BackgroundImageFix" stdDeviation="2"/>
<feComposite in2="SourceAlpha" operator="in" result="effect1_backgroundBlur_1_3"/>
<feBlend mode="normal" in="SourceGraphic" in2="effect1_backgroundBlur_1_3" result="shape"/>
</filter>
<linearGradient id="paint0_linear_1_3" x1="16.469" y1="14.9852" x2="16.469" y2="19.7865" gradientUnits="userSpaceOnUse">
<stop stop-color="#FCF49C"/>
<stop offset="0.152626" stop-color="#C6AD49"/>
<stop offset="0.345954" stop-color="#A4712D"/>
<stop offset="0.465634" stop-color="#A37A3B"/>
<stop offset="0.544792" stop-color="#B99040"/>
<stop offset="0.763542" stop-color="#7F5826"/>
<stop offset="0.9875" stop-color="#2A1809"/>
</linearGradient>
<linearGradient id="paint1_linear_1_3" x1="16.5" y1="0" x2="16.5" y2="33" gradientUnits="userSpaceOnUse">
<stop stop-color="#FCF49C"/>
<stop offset="0.152626" stop-color="#C6AD49"/>
<stop offset="0.345954" stop-color="#A4712D"/>
<stop offset="0.465634" stop-color="#A37A3B"/>
<stop offset="0.544792" stop-color="#B99040"/>
<stop offset="0.763542" stop-color="#7F5826"/>
<stop offset="0.9875" stop-color="#2A1809"/>
</linearGradient>
</defs>
</svg>
