<svg width="33" height="33" viewBox="0 0 33 33" fill="none" xmlns="http://www.w3.org/2000/svg">
<path fill-rule="evenodd" clip-rule="evenodd" d="M4.5 0H28.5C29.6935 0 30.8381 0.474106 31.682 1.31802C32.5259 2.16193 33 3.30653 33 4.5V28.5C33 29.6935 32.5259 30.8381 31.682 31.682C30.8381 32.5259 29.6935 33 28.5 33H4.5C3.30653 33 2.16193 32.5259 1.31802 31.682C0.474106 30.8381 0 29.6935 0 28.5V4.5C0 3.30653 0.474106 2.16193 1.31802 1.31802C2.16193 0.474106 3.30653 0 4.5 0ZM23.5329 13.0674C23.5329 13.3726 23.5119 13.7 23.49 14.0051C24.7361 16.5545 26.6707 22.0477 25.7674 23.6828C25.6604 23.9007 24.5212 22.811 23.6619 21.0674C23.6408 22.9853 22.6955 24.7289 21.1696 25.9281C22.4157 26.146 23.5549 26.9519 23.469 27.3665C23.319 28.0639 20.2892 28.217 16.5289 27.6716C16.4859 27.6494 16.4649 27.6494 16.4429 27.6494C16.2921 27.6716 16.1422 27.6716 15.9913 27.6716C15.9158 27.6716 15.8407 27.6661 15.7655 27.6605C15.6903 27.6549 15.6151 27.6494 15.5396 27.6494C15.4967 27.6716 15.4756 27.6716 15.4537 27.6716C11.7153 28.217 8.66448 28.0639 8.51361 27.3665C8.42767 26.9529 9.56684 26.146 10.813 25.9281C9.28801 24.7289 8.34268 23.0076 8.32072 21.111C7.43936 22.811 6.34411 23.8794 6.23621 23.6828C5.33385 22.0477 7.22451 16.6204 8.4926 14.0487L8.48981 14.0053C8.4697 13.6925 8.44963 13.3804 8.44963 13.0674C8.44963 8.05376 11.8232 4 15.9913 4C20.1593 4 23.5329 8.05376 23.5329 13.0674Z" fill="url(#paint0_linear_201_28)"/>
<defs>
<linearGradient id="paint0_linear_201_28" x1="16.5" y1="0" x2="16.5" y2="33" gradientUnits="userSpaceOnUse">
<stop stop-color="#FCF49C"/>
<stop offset="0.152626" stop-color="#C6AD49"/>
<stop offset="0.345954" stop-color="#A4712D"/>
<stop offset="0.465634" stop-color="#A37A3B"/>
<stop offset="0.544792" stop-color="#B99040"/>
<stop offset="0.763542" stop-color="#7F5826"/>
<stop offset="0.9875" stop-color="#2A1809"/>
</linearGradient>
</defs>
</svg>
