<svg width="33" height="33" viewBox="0 0 33 33" fill="none" xmlns="http://www.w3.org/2000/svg">
<path d="M28.5 0H4.5C3.30653 0 2.16193 0.474106 1.31802 1.31802C0.474106 2.16193 0 3.30653 0 4.5L0 28.5C0 29.6935 0.474106 30.8381 1.31802 31.682C2.16193 32.5259 3.30653 33 4.5 33H28.5C29.6935 33 30.8381 32.5259 31.682 31.682C32.5259 30.8381 33 29.6935 33 28.5V4.5C33 3.30653 32.5259 2.16193 31.682 1.31802C30.8381 0.474106 29.6935 0 28.5 0ZM26.01 22.395C25.53 22.4625 23.1825 22.395 23.0606 22.395C22.4538 22.403 21.8682 22.1712 21.4313 21.75C20.9363 21.2719 20.4938 20.7469 20.01 20.25C19.8675 20.0975 19.7125 19.957 19.5469 19.83C19.1606 19.5338 18.7781 19.5994 18.5963 20.0569C18.4543 20.5493 18.3551 21.053 18.3 21.5625C18.2681 22.0238 17.9756 22.3125 17.4581 22.3444C17.1375 22.3612 16.8169 22.3688 16.5 22.3594C15.3451 22.3531 14.2082 22.0722 13.1831 21.54C12.0737 20.9224 11.107 20.0778 10.3463 19.0613C9.09563 17.4638 8.09625 15.7087 7.20375 13.8994C7.15687 13.8075 6.24187 11.8613 6.21937 11.7694C6.13687 11.4638 6.21938 11.1694 6.4725 11.0663C6.63375 11.0044 9.64875 11.0663 9.69937 11.0663C9.92368 11.0647 10.1427 11.1346 10.3247 11.2657C10.5067 11.3968 10.6423 11.5824 10.7119 11.7956C11.2697 13.2225 12.0327 14.5603 12.9769 15.7669C13.1091 15.9276 13.2638 16.0684 13.4363 16.185C13.6819 16.3537 13.9144 16.2956 14.0156 16.0106C14.1358 15.6178 14.2063 15.2116 14.2256 14.8013C14.2425 13.9875 14.2256 13.4531 14.1806 12.6394C14.1506 12.1181 13.9669 11.6625 13.1981 11.5237C12.9619 11.4806 12.9413 11.2856 13.0931 11.0906C13.41 10.6875 13.8431 10.6219 14.3287 10.5975C15.0525 10.5563 15.7763 10.5844 16.5 10.5975H16.6575C16.9725 10.5964 17.2867 10.6284 17.595 10.6931C17.7774 10.7304 17.9429 10.8255 18.0669 10.9643C18.1908 11.1032 18.2667 11.2783 18.2831 11.4637C18.3204 11.6691 18.3361 11.8777 18.33 12.0862C18.3113 12.9731 18.2681 13.8619 18.2587 14.7488C18.25 15.1006 18.2821 15.4524 18.3544 15.7969C18.4575 16.2694 18.7819 16.3875 19.1044 16.0463C19.5227 15.6031 19.9058 15.1279 20.25 14.625C20.8608 13.7143 21.3642 12.7359 21.75 11.7094C21.96 11.1825 22.125 11.0663 22.6875 11.0663H25.8862C26.0764 11.0629 26.2661 11.0882 26.4487 11.1412C26.5134 11.1582 26.5739 11.1884 26.6263 11.2298C26.6788 11.2713 26.7221 11.3231 26.7536 11.3821C26.7851 11.441 26.8041 11.5059 26.8094 11.5725C26.8147 11.6392 26.8062 11.7062 26.7844 11.7694C26.6269 12.4706 26.2481 13.0687 25.8469 13.6444C25.1963 14.565 24.51 15.4631 23.8444 16.3725C23.7643 16.4901 23.6911 16.6121 23.625 16.7381C23.3737 17.1919 23.3925 17.445 23.7562 17.82C24.3375 18.4181 24.9581 18.9769 25.5188 19.5919C25.9299 20.0393 26.3014 20.5218 26.6288 21.0338C27.0281 21.6788 26.775 22.2863 26.01 22.395Z" fill="url(#paint0_linear_1_8)"/>
<defs>
<linearGradient id="paint0_linear_1_8" x1="16.5" y1="0" x2="16.5" y2="33" gradientUnits="userSpaceOnUse">
<stop stop-color="#FCF49C"/>
<stop offset="0.152626" stop-color="#C6AD49"/>
<stop offset="0.345954" stop-color="#A4712D"/>
<stop offset="0.465634" stop-color="#A37A3B"/>
<stop offset="0.544792" stop-color="#B99040"/>
<stop offset="0.763542" stop-color="#7F5826"/>
<stop offset="0.9875" stop-color="#2A1809"/>
</linearGradient>
</defs>
</svg>
