<svg width="33" height="33" viewBox="0 0 33 33" fill="none" xmlns="http://www.w3.org/2000/svg">
<path d="M28.5 0H4.5C3.30653 0 2.16193 0.474106 1.31802 1.31802C0.474106 2.16193 0 3.30653 0 4.5L0 28.5C0 29.6935 0.474106 30.8381 1.31802 31.682C2.16193 32.5259 3.30653 33 4.5 33H28.5C29.6935 33 30.8381 32.5259 31.682 31.682C32.5259 30.8381 33 29.6935 33 28.5V4.5C33 3.30653 32.5259 2.16193 31.682 1.31802C30.8381 0.474106 29.6935 0 28.5 0ZM22.9369 17.1375L10.5 23.0625C10.4241 23.0999 10.3399 23.1172 10.2553 23.1129C10.1708 23.1086 10.0888 23.0828 10.0171 23.0379C9.94534 22.993 9.88625 22.9306 9.84542 22.8564C9.80458 22.7823 9.78336 22.699 9.78375 22.6144V10.3819C9.78499 10.2979 9.80732 10.2157 9.84867 10.1426C9.89002 10.0696 9.94907 10.0081 10.0204 9.96388C10.0917 9.91963 10.173 9.89402 10.2568 9.88941C10.3406 9.8848 10.4243 9.90134 10.5 9.9375L22.9444 16.245C23.0264 16.2876 23.095 16.352 23.1427 16.4312C23.1903 16.5103 23.2151 16.6011 23.2144 16.6935C23.2136 16.7859 23.1873 16.8763 23.1383 16.9547C23.0893 17.033 23.0196 17.0963 22.9369 17.1375Z" fill="url(#paint0_linear_1_25)"/>
<defs>
<linearGradient id="paint0_linear_1_25" x1="16.5" y1="0" x2="16.5" y2="33" gradientUnits="userSpaceOnUse">
<stop stop-color="#FCF49C"/>
<stop offset="0.152626" stop-color="#C6AD49"/>
<stop offset="0.345954" stop-color="#A4712D"/>
<stop offset="0.465634" stop-color="#A37A3B"/>
<stop offset="0.544792" stop-color="#B99040"/>
<stop offset="0.763542" stop-color="#7F5826"/>
<stop offset="0.9875" stop-color="#2A1809"/>
</linearGradient>
</defs>
</svg>
